<svg version="1.1" id="Layer_1" xmlns="http://www.w3.org/2000/svg" xmlns:xlink="http://www.w3.org/1999/xlink" x="0px" y="0px"
	 width="100%" viewBox="0 0 70 70" enable-background="new 0 0 70 70" xml:space="preserve">
<path fill="#FDFEFF" opacity="1.000000" stroke="none" 
	d="
M40.000000,71.000000 
	C26.666666,71.000000 13.833333,71.000000 1.000000,71.000000 
	C1.000000,47.666668 1.000000,24.333334 1.000000,1.000000 
	C24.333334,1.000000 47.666668,1.000000 71.000000,1.000000 
	C71.000000,24.333334 71.000000,47.666668 71.000000,71.000000 
	C60.833332,71.000000 50.666668,71.000000 40.000000,71.000000 
M40.494347,33.407970 
	C39.592979,34.379330 38.683323,35.343147 37.791676,36.323353 
	C33.843597,40.663544 33.630455,46.014137 37.256191,49.607449 
	C40.906216,53.224838 46.269287,52.986992 50.504250,48.904572 
	C54.439991,45.110596 58.333729,41.269787 62.148445,37.354588 
	C65.019676,34.407726 66.264236,31.013750 64.111832,26.316570 
	C59.030666,21.066988 54.167400,15.579775 48.792194,10.650860 
	C45.172218,7.331444 40.580894,8.032983 37.161701,11.524283 
	C33.430794,15.333872 33.573792,20.462439 37.783951,24.826683 
	C40.053322,27.179108 42.334217,29.341152 40.494347,33.407970 
M4.925091,48.679234 
	C10.003766,53.937859 14.910709,59.379219 20.231787,64.379913 
	C22.994133,66.975937 26.596663,67.021881 30.010611,65.051834 
	C35.351643,61.969742 36.182453,55.428680 31.654526,50.597027 
	C29.326157,48.112473 26.763296,45.911011 28.707127,41.640495 
	C29.615126,40.669338 30.542444,39.715435 31.427813,38.724068 
	C35.474472,34.192955 35.623814,29.069674 31.830971,25.397095 
	C28.099287,21.783733 22.847525,22.047884 18.523731,26.213888 
	C14.572181,30.021231 10.597938,33.822540 6.901014,37.870644 
	C4.320930,40.695812 1.799125,43.854412 4.925091,48.679234 
z"/>
<path fill="#20B6FE" opacity="1.000000" stroke="none" 
	d="
M4.825474,47.977432 
	C1.799125,43.854412 4.320930,40.695812 6.901014,37.870644 
	C10.597938,33.822540 14.572181,30.021231 18.523731,26.213888 
	C22.847525,22.047884 28.099287,21.783733 31.830971,25.397095 
	C35.623814,29.069674 35.474472,34.192955 31.427813,38.724068 
	C30.542444,39.715435 29.615126,40.669338 28.091824,41.936882 
	C20.684807,47.139534 13.048245,48.714294 4.825474,47.977432 
z"/>
<path fill="#1EB6FE" opacity="1.000000" stroke="none" 
	d="
M64.252907,27.016422 
	C66.264236,31.013750 65.019676,34.407726 62.148445,37.354588 
	C58.333729,41.269787 54.439991,45.110596 50.504250,48.904572 
	C46.269287,52.986992 40.906216,53.224838 37.256191,49.607449 
	C33.630455,46.014137 33.843597,40.663544 37.791676,36.323353 
	C38.683323,35.343147 39.592979,34.379330 41.086983,33.069061 
	C48.576279,28.345451 56.032986,26.173309 64.252907,27.016422 
z"/>
<path fill="#1D79D3" opacity="1.000000" stroke="none" 
	d="
M64.182373,26.666496 
	C56.032986,26.173309 48.576279,28.345451 41.363457,32.878304 
	C42.334217,29.341152 40.053322,27.179108 37.783951,24.826683 
	C33.573792,20.462439 33.430794,15.333872 37.161701,11.524283 
	C40.580894,8.032983 45.172218,7.331444 48.792194,10.650860 
	C54.167400,15.579775 59.030666,21.066988 64.182373,26.666496 
z"/>
<path fill="#1E79D3" opacity="1.000000" stroke="none" 
	d="
M4.875282,48.328331 
	C13.048245,48.714294 20.684807,47.139534 27.814816,42.113983 
	C26.763296,45.911011 29.326157,48.112473 31.654526,50.597027 
	C36.182453,55.428680 35.351643,61.969742 30.010611,65.051834 
	C26.596663,67.021881 22.994133,66.975937 20.231787,64.379913 
	C14.910709,59.379219 10.003766,53.937859 4.875282,48.328331 
z"/>
</svg>