<?xml version="1.0" encoding="utf-8"?>
<svg viewBox="0 0 288 74" xmlns="http://www.w3.org/2000/svg">
  <path opacity="1.000000" stroke="none" d="M 204.794 75.101 C 136.578 75.101 68.863 75.101 1.148 75.101 C 1.148 50.232 1.148 25.362 1.148 0.491 C 97.454 0.491 193.759 0.491 290.064 0.491 C 290.064 25.362 290.064 50.232 290.064 75.101 C 261.807 75.101 233.551 75.101 204.794 75.101 M 174.955 31.648 C 174.699 31.434 174.402 31.256 174.195 31.003 C 168.796 24.443 161.74 23.333 155.933 28.14 C 150.307 32.797 149.388 41.806 153.945 47.631 C 157.989 52.8 168.367 54.009 173.45 49.572 C 174.615 48.557 174.654 46.24 175.212 44.522 C 173.469 44.274 171.72 43.8 169.987 43.856 C 168.722 43.896 167.501 44.901 166.222 45.005 C 163.505 45.225 160.58 45.481 159.508 41.164 C 162.174 41.164 164.455 41.165 166.737 41.163 C 176.059 41.157 176.054 41.157 174.961 31.801 C 174.936 31.588 175.388 31.318 176.364 31.457 C 180.313 32.702 181.229 35.475 180.678 39.342 C 180.328 41.803 180.134 44.484 180.761 46.825 C 181.254 48.67 183.108 50.147 184.357 51.787 C 185.562 50.105 187.6 48.518 187.805 46.72 C 188.31 42.294 187.97 37.77 187.97 33.286 C 188.367 33.533 188.762 33.779 189.158 34.026 C 190.717 32.536 192.275 31.045 193.834 29.554 C 192.179 27.903 190.523 26.253 188.867 24.602 C 187.239 22.47 189.686 17.502 184.306 17.562 C 179.085 17.619 181.185 22.425 180.419 25.319 C 180.022 25.142 179.626 24.964 179.23 24.788 C 178.048 26.935 176.866 29.082 174.955 31.648 M 44.786 34.175 C 43.881 35.154 42.968 36.125 42.073 37.114 C 38.113 41.486 37.898 46.886 41.532 50.507 C 45.192 54.153 50.574 53.912 54.821 49.797 C 58.77 45.972 62.676 42.1 66.502 38.152 C 69.382 35.182 70.633 31.76 68.47 27.025 C 63.379 21.737 58.471 16.252 53.128 11.235 C 49.964 8.265 46.065 8.546 42.545 11.125 C 37.796 14.607 37.538 20.783 42.072 25.528 C 44.34 27.902 46.63 30.077 44.786 34.175 M 9.102 49.572 C 14.196 54.873 19.117 60.358 24.454 65.399 C 27.225 68.016 30.838 68.061 34.262 66.077 C 39.618 62.972 40.451 56.376 35.909 51.506 C 33.573 49.002 31.005 46.782 32.951 42.475 C 33.862 41.496 34.793 40.536 35.681 39.535 C 39.74 34.97 39.891 29.802 36.089 26.101 C 32.346 22.457 27.08 22.723 22.741 26.924 C 18.777 30.762 14.792 34.595 11.083 38.675 C 8.494 41.524 5.967 44.709 9.102 49.572 M 222.709 55.453 C 222.717 56.457 222.324 57.779 222.814 58.399 C 223.894 59.769 225.312 61.448 226.805 61.693 C 227.678 61.837 229.878 59.49 229.914 58.219 C 230.185 48.69 230.208 39.147 229.901 29.621 C 229.86 28.32 226.584 25.9 226.458 26.005 C 223.51 28.458 221.004 26.074 218.32 25.586 C 213.981 24.797 210.5 26.454 207.935 30.041 C 204.34 35.067 204.163 42.049 207.489 47.018 C 210.742 51.874 214.635 52.94 222.71 51.032 C 222.71 52.254 222.71 53.411 222.709 55.453 M 137.775 25.601 C 132.498 24.511 128.563 26.609 125.974 31.089 C 122.963 36.301 123.163 41.659 126.235 46.838 C 128.484 50.633 131.853 52.534 136.262 52.118 C 139.254 51.836 142.091 48.999 145.374 51.604 C 145.484 51.692 148.698 49.157 148.74 47.791 C 149.044 38.073 149.041 28.339 148.729 18.622 C 148.687 17.292 146.395 16.034 145.144 14.743 C 143.924 16.072 142.01 17.233 141.643 18.769 C 141.052 21.236 141.484 23.95 141.484 26.959 C 140.146 26.405 139.39 26.094 137.775 25.601 M 267.262 43.747 C 265.834 41.926 266.339 41.12 268.579 41.127 C 272.251 41.138 275.923 41.092 279.595 41.092 C 282.433 41.091 283.374 39.55 283.187 36.891 C 282.821 31.667 278.433 26.561 273.34 25.541 C 267.359 24.341 261.547 27.44 259.07 33.147 C 256.492 39.089 258.3 46.441 263.196 49.911 C 267.838 53.203 277.478 52.907 280.985 49.081 C 281.885 48.1 282.568 45.534 282.006 44.901 C 281.113 43.893 279.086 43.536 277.545 43.55 C 274.356 43.578 271.171 44.032 267.262 43.747 M 121.51 34.504 C 118.162 26.723 112.278 23.568 105.398 25.867 C 99.154 27.953 95.689 35.498 97.582 42.888 C 99.28 49.519 105.203 53.22 112.114 51.97 C 119.06 50.714 122.952 43.926 121.51 34.504 M 248.458 41.027 C 246.922 42.377 245.385 43.727 243.849 45.077 C 242.663 43.358 240.769 41.762 240.449 39.892 C 239.891 36.64 240.662 33.162 240.152 29.894 C 239.916 28.381 237.974 27.138 236.805 25.772 C 235.482 27.175 233.189 28.469 233.017 30.002 C 232.517 34.466 232.612 39.045 232.945 43.545 C 233.358 49.143 238.136 52.393 244.974 52.183 C 251.594 51.978 255.659 48.623 255.902 42.911 C 256.072 38.897 256.307 34.822 255.785 30.872 C 255.545 29.049 253.778 26.264 252.33 26.003 C 249.039 25.409 248.492 28.342 248.474 31.043 C 248.453 34.059 248.472 37.074 248.458 41.027 M 94.068 50.37 C 94.522 48.653 94.977 46.935 95.431 45.217 C 93.792 44.96 92.149 44.729 90.516 44.437 C 88.216 44.028 85.242 44.287 83.831 42.925 C 82.554 41.693 82.274 38.479 82.812 36.479 C 83.916 32.376 87.071 32.17 90.842 33.154 C 92.266 33.525 94.131 32.189 95.796 31.632 C 94.915 29.906 94.153 28.098 93.086 26.498 C 92.721 25.951 91.6 25.856 90.798 25.671 C 85.119 24.359 79.56 26.476 76.801 30.967 C 73.624 36.14 74.1 43.156 77.948 47.896 C 81.567 52.354 86.462 53.272 94.068 50.37 M 202.081 50.243 C 202.323 43.135 202.73 36.025 202.628 28.922 C 202.613 27.859 200.174 25.983 198.921 26.036 C 197.768 26.084 195.825 28.171 195.748 29.453 C 195.376 35.603 195.253 41.8 195.582 47.95 C 195.776 51.596 198.128 52.775 202.081 50.243 M 201.43 15.333 C 198.662 13.816 196.159 14.661 195.31 17.346 C 194.813 18.916 195.717 21.732 196.983 22.808 C 197.948 23.628 200.936 23.212 202.206 22.253 C 204.621 20.428 204.198 17.902 201.43 15.333 Z" style="fill: rgb(34, 36, 41);" transform="matrix(0.9999999999999999, 0, 0, 0.9999999999999999, 0, -3.552713678800501e-15)"/>
  <path opacity="1.000000" stroke="none" d="&#10;M221.858582,55.072479 &#10;&#9;C221.858734,53.486206 221.858734,52.339928 221.858734,51.128067 &#10;&#9;C213.810593,53.019321 209.928925,51.962864 206.687393,47.145477 &#10;&#9;C203.371246,42.217133 203.548203,35.292664 207.131149,30.307571 &#10;&#9;C209.687912,26.750254 213.158661,25.106926 217.482925,25.889147 &#10;&#9;C220.159637,26.373337 222.657272,28.737633 225.596420,26.304539 &#10;&#9;C225.721710,26.200825 228.986786,28.600754 229.028534,29.891312 &#10;&#9;C229.334152,39.339191 229.311676,48.805119 229.041519,58.255318 &#10;&#9;C229.005478,59.516430 226.812088,61.844051 225.940948,61.701591 &#10;&#9;C224.452972,61.458260 223.040665,59.792744 221.962814,58.434036 &#10;&#9;C221.475220,57.819374 221.866074,56.507854 221.858582,55.072479 &#10;M219.490021,44.165157 &#10;&#9;C220.133469,41.633141 221.649872,38.943638 221.227768,36.603851 &#10;&#9;C220.485504,32.489361 215.431412,31.228350 213.525513,34.548946 &#10;&#9;C212.335052,36.623028 212.119980,39.985462 212.949905,42.218788 &#10;&#9;C213.451721,43.569180 216.789398,43.865749 219.490021,44.165157 &#10;z" style="fill: rgb(255, 255, 255);" transform="matrix(0.9999999999999999, 0, 0, 0.9999999999999999, 0, -3.552713678800501e-15)"/>
  <path opacity="1.000000" stroke="none" d="&#10;M137.622177,25.993740 &#10;&#9;C138.803726,26.392212 139.556854,26.701847 140.890900,27.250319 &#10;&#9;C140.890900,24.266426 140.460312,21.574255 141.048767,19.127138 &#10;&#9;C141.414871,17.604691 143.323044,16.453070 144.539124,15.135015 &#10;&#9;C145.785965,16.415688 148.071106,17.662886 148.113647,18.982386 &#10;&#9;C148.424347,28.619230 148.427429,38.275078 148.124557,47.912254 &#10;&#9;C148.081940,49.267876 144.878662,51.781689 144.768753,51.694897 &#10;&#9;C141.496338,49.110630 138.668121,51.924717 135.685532,52.204254 &#10;&#9;C131.290146,52.616207 127.932381,50.731438 125.689758,46.967834 &#10;&#9;C122.628548,41.830444 122.428864,36.516914 125.430710,31.347239 &#10;&#9;C128.010834,26.903856 131.933365,24.823074 137.622177,25.993740 &#10;M131.321777,36.157848 &#10;&#9;C131.300186,37.939987 130.823090,39.873642 131.354675,41.471767 &#10;&#9;C132.367020,44.515186 134.929459,46.424366 137.822693,44.432266 &#10;&#9;C139.478027,43.292500 140.601273,40.359283 140.635757,38.212212 &#10;&#9;C140.662842,36.524105 138.931366,33.759609 137.477875,33.375038 &#10;&#9;C135.851868,32.944824 133.658585,34.658539 131.321777,36.157848 &#10;z" style="fill: rgb(255, 255, 255);" transform="matrix(0.9999999999999999, 0, 0, 0.9999999999999999, 0, -3.552713678800501e-15)"/>
  <path fill="#20B6FE" opacity="1.000000" stroke="none" d="&#10;M8.828956,48.978100 &#10;&#9;C5.803599,44.855896 8.322025,41.697037 10.903117,38.871521 &#10;&#9;C14.600197,34.824341 18.573507,31.023018 22.524679,27.216158 &#10;&#9;C26.849012,23.049768 32.099476,22.785721 35.830273,26.399412 &#10;&#9;C39.620319,30.070496 39.469421,35.196167 35.423351,39.725109 &#10;&#9;C34.537903,40.716228 33.610691,41.670040 32.087986,42.938103 &#10;&#9;C24.683010,48.137691 17.049423,49.714924 8.828956,48.978100 &#10;z" transform="matrix(0.9999999999999999, 0, 0, 0.9999999999999999, 0, -3.552713678800501e-15)"/>
  <path fill="#1EB6FE" opacity="1.000000" stroke="none" d="&#10;M68.248894,28.016033 &#10;&#9;C70.264221,32.012985 69.017075,35.406483 66.146973,38.352993 &#10;&#9;C62.333076,42.268421 58.439156,46.108501 54.503693,49.902191 &#10;&#9;C50.269222,53.984112 44.903759,54.222610 41.255844,50.606327 &#10;&#9;C37.633331,47.015228 37.848209,41.659916 41.795261,37.322296 &#10;&#9;C42.687008,36.342312 43.597095,35.379021 45.090607,34.068237 &#10;&#9;C52.577007,29.344988 60.031357,27.173059 68.248894,28.016033 &#10;z" transform="matrix(0.9999999999999999, 0, 0, 0.9999999999999999, 0, -3.552713678800501e-15)"/>
  <path opacity="1.000000" stroke="none" d="&#10;M174.915665,31.333885 &#10;&#9;C174.687088,31.575090 174.236923,31.842319 174.261765,32.053761 &#10;&#9;C175.351608,41.332733 175.356674,41.332466 166.063904,41.338898 &#10;&#9;C163.789368,41.340473 161.514832,41.339130 158.858032,41.339130 &#10;&#9;C159.925797,45.621578 162.841736,45.367428 165.550598,45.149452 &#10;&#9;C166.825302,45.046883 168.043015,44.049385 169.304062,44.009354 &#10;&#9;C171.031326,43.954521 172.775269,44.424904 174.512054,44.670189 &#10;&#9;C173.956635,46.374214 173.916931,48.672203 172.756683,49.679626 &#10;&#9;C167.689545,54.079323 157.343994,52.880905 153.311935,47.753132 &#10;&#9;C148.769913,41.976818 149.686295,33.041679 155.294464,28.422567 &#10;&#9;C161.082764,23.655088 168.116318,24.756077 173.498001,31.262039 &#10;&#9;C173.705414,31.512762 174.001663,31.690008 174.604370,31.655052 &#10;&#9;C174.952225,31.408617 174.915665,31.333883 174.915665,31.333885 &#10;M165.111130,32.461182 &#10;&#9;C161.927963,31.386877 159.856323,32.331932 158.823730,35.994442 &#10;&#9;C161.809875,35.994442 164.479019,35.994442 167.800323,35.994442 &#10;&#9;C166.954010,34.690868 166.389633,33.821556 165.111130,32.461182 &#10;z" style="fill: rgb(255, 255, 255);" transform="matrix(0.9999999999999999, 0, 0, 0.9999999999999999, 0, -3.552713678800501e-15)"/>
  <path opacity="1.000000" stroke="none" d="&#10;M266.630554,44.181725 &#10;&#9;C270.167358,44.184849 273.342224,43.734707 276.520844,43.706379 &#10;&#9;C278.057434,43.692684 280.077118,44.047058 280.968109,45.046238 &#10;&#9;C281.528229,45.674389 280.847534,48.219810 279.950714,49.192883 &#10;&#9;C276.454651,52.986183 266.843903,53.280373 262.216827,50.015865 &#10;&#9;C257.337311,46.573250 255.533859,39.281792 258.104218,33.388271 &#10;&#9;C260.572845,27.728003 266.367493,24.654852 272.329071,25.844233 &#10;&#9;C277.405975,26.857113 281.779968,31.920164 282.145386,37.101494 &#10;&#9;C282.331421,39.739464 281.392761,41.268036 278.564270,41.268429 &#10;&#9;C274.903778,41.268944 271.243225,41.314529 267.582825,41.303352 &#10;&#9;C265.349915,41.296532 264.846832,42.095551 266.630554,44.181725 &#10;M265.749115,34.388710 &#10;&#9;C265.919739,34.990280 266.066284,36.106140 266.264679,36.115421 &#10;&#9;C268.793518,36.233761 271.329803,36.193417 274.459717,36.193417 &#10;&#9;C272.142914,31.667433 269.690826,30.643389 265.749115,34.388710 &#10;z" style="fill: rgb(255, 255, 255);" transform="matrix(0.9999999999999999, 0, 0, 0.9999999999999999, 0, -3.552713678800501e-15)"/>
  <path opacity="1.000000" stroke="none" d="&#10;M121.069733,35.116375 &#10;&#9;C122.418533,44.079567 118.538422,50.811562 111.614487,52.057785 &#10;&#9;C104.725250,53.297764 98.820854,49.626354 97.128052,43.049988 &#10;&#9;C95.241364,35.720387 98.695000,28.236856 104.919113,26.167898 &#10;&#9;C111.777496,23.888102 117.642830,27.016613 121.069733,35.116375 &#10;M111.645691,44.295403 &#10;&#9;C112.232338,41.453392 113.743912,38.411350 113.182953,35.817524 &#10;&#9;C112.395164,32.174850 107.164612,31.540314 105.529594,34.781891 &#10;&#9;C104.484100,36.854702 104.216820,40.083382 105.120834,42.118610 &#10;&#9;C105.766998,43.573330 108.936417,43.907257 111.645691,44.295403 &#10;z" style="fill: rgb(255, 255, 255);" transform="matrix(0.9999999999999999, 0, 0, 0.9999999999999999, 0, -3.552713678800501e-15)"/>
  <path opacity="1.000000" stroke="none" d="&#10;M247.534210,40.739040 &#10;&#9;C247.540100,37.283623 247.521606,34.292599 247.541885,31.301834 &#10;&#9;C247.560043,28.622810 248.104843,25.713400 251.385727,26.302320 &#10;&#9;C252.828934,26.561375 254.590317,29.323387 254.830215,31.131662 &#10;&#9;C255.350021,35.049850 255.116104,39.091442 254.945984,43.072124 &#10;&#9;C254.703857,48.738018 250.651764,52.065372 244.052979,52.268143 &#10;&#9;C237.237427,52.477577 232.474136,49.253483 232.061813,43.701420 &#10;&#9;C231.730392,39.239037 231.635422,34.697086 232.134247,30.269154 &#10;&#9;C232.305573,28.748238 234.590897,27.465469 235.910446,26.073900 &#10;&#9;C237.075363,27.428139 239.011185,28.661390 239.246613,30.161507 &#10;&#9;C239.755463,33.403786 238.986664,36.852783 239.542328,40.079117 &#10;&#9;C239.861572,41.932667 241.749542,43.516033 242.931305,45.221024 &#10;&#9;C244.463104,43.881866 245.994904,42.542706 247.534210,40.739040 &#10;z" style="fill: rgb(255, 255, 255);" transform="matrix(0.9999999999999999, 0, 0, 0.9999999999999999, 0, -3.552713678800501e-15)"/>
  <path fill="#1E79D3" opacity="1.000000" stroke="none" d="&#10;M8.878796,49.328720 &#10;&#9;C17.049423,49.714924 24.683010,48.137691 31.811047,43.115730 &#10;&#9;C30.761887,46.911171 33.321941,49.113327 35.650295,51.597382 &#10;&#9;C40.178192,56.428051 39.348660,62.969208 34.009064,66.049141 &#10;&#9;C30.595978,68.017845 26.994410,67.972626 24.232309,65.376556 &#10;&#9;C18.912594,60.376617 14.006344,54.936768 8.878796,49.328720 &#10;z" transform="matrix(0.9999999999999999, 0, 0, 0.9999999999999999, 0, -3.552713678800501e-15)"/>
  <path fill="#1D79D3" opacity="1.000000" stroke="none" d="&#10;M68.178543,27.666330 &#10;&#9;C60.031357,27.173059 52.577007,29.344988 45.366661,33.876484 &#10;&#9;C46.338261,30.343271 44.055470,28.186712 41.793961,25.831923 &#10;&#9;C37.273731,21.125244 37.531868,14.999480 42.265686,11.546989 &#10;&#9;C45.774147,8.988180 49.661133,8.709566 52.814957,11.655687 &#10;&#9;C58.141319,16.631269 63.033466,22.071678 68.178543,27.666330 &#10;z" transform="matrix(0.9999999999999999, 0, 0, 0.9999999999999999, 0, -3.552713678800501e-15)"/>
  <path opacity="1.000000" stroke="none" d="&#10;M93.293015,50.680725 &#10;&#9;C86.043526,53.348743 81.164230,52.438515 77.555962,48.016762 &#10;&#9;C73.719994,43.315990 73.246399,36.356716 76.413353,31.226568 &#10;&#9;C79.163429,26.771713 84.705620,24.672354 90.366325,25.973154 &#10;&#9;C91.165436,26.156790 92.282021,26.251261 92.645744,26.793465 &#10;&#9;C93.710587,28.380850 94.469345,30.173569 95.348030,31.885836 &#10;&#9;C93.688721,32.438793 91.829063,33.763718 90.408928,33.395145 &#10;&#9;C86.650200,32.419621 83.505180,32.624115 82.405510,36.693451 &#10;&#9;C81.869659,38.676346 82.147972,41.864574 83.421234,43.087025 &#10;&#9;C84.827522,44.437199 87.791840,44.180134 90.083984,44.586845 &#10;&#9;C91.711960,44.875710 93.350594,45.104485 94.984474,45.360077 &#10;&#9;C94.531311,47.063679 94.078156,48.767281 93.293015,50.680725 &#10;z" style="fill: rgb(255, 255, 255);" transform="matrix(0.9999999999999999, 0, 0, 0.9999999999999999, 0, -3.552713678800501e-15)"/>
  <path opacity="1.000000" stroke="none" d="&#10;M175.287827,31.523296 &#10;&#9;C174.915665,31.333883 174.952225,31.408617 174.967468,31.447699 &#10;&#9;C176.160919,29.357021 177.339157,27.227264 178.517380,25.097507 &#10;&#9;C178.912399,25.273094 179.307419,25.448683 179.702438,25.624269 &#10;&#9;C180.466553,22.753153 178.373260,17.987797 183.576981,17.930500 &#10;&#9;C188.939880,17.871445 186.501068,22.798243 188.124435,24.913757 &#10;&#9;C189.774612,26.550718 191.424789,28.187679 193.074966,29.824640 &#10;&#9;C191.521408,31.303413 189.967850,32.782185 188.414307,34.260960 &#10;&#9;C188.019577,34.016098 187.624863,33.771236 187.230133,33.526375 &#10;&#9;C187.230133,37.973949 187.568054,42.460197 187.065628,46.850273 &#10;&#9;C186.861572,48.633404 184.829132,50.207291 183.628632,51.876389 &#10;&#9;C182.382935,50.249382 180.534882,48.784309 180.043015,46.954651 &#10;&#9;C179.418686,44.632278 179.612381,41.973610 179.961639,39.532684 &#10;&#9;C180.510361,35.697636 179.597504,32.946503 175.287827,31.523296 &#10;z" style="fill: rgb(255, 255, 255);" transform="matrix(0.9999999999999999, 0, 0, 0.9999999999999999, 0, -3.552713678800501e-15)"/>
  <path opacity="1.000000" stroke="none" d="&#10;M201.013123,50.654888 &#10;&#9;C197.354782,52.855602 195.010986,51.686981 194.816727,48.070923 &#10;&#9;C194.489014,41.970486 194.612686,35.824936 194.983109,29.724873 &#10;&#9;C195.060303,28.453571 196.996964,26.383898 198.146713,26.335201 &#10;&#9;C199.394958,26.282333 201.826050,28.143475 201.841263,29.197445 &#10;&#9;C201.943008,36.242569 201.537277,43.295017 201.013123,50.654888 &#10;z" style="fill: rgb(255, 255, 255);" transform="matrix(0.9999999999999999, 0, 0, 0.9999999999999999, 0, -3.552713678800501e-15)"/>
  <path opacity="1.000000" stroke="none" d="&#10;M200.967560,15.936412 &#10;&#9;C203.406250,18.268045 203.828476,20.773972 201.420639,22.583153 &#10;&#9;C200.154221,23.534704 197.176620,23.947147 196.213730,23.133390 &#10;&#9;C194.951828,22.066921 194.051254,19.273966 194.546402,17.716867 &#10;&#9;C195.393387,15.053347 197.888687,14.215955 200.967560,15.936412 &#10;z" style="fill: rgb(255, 255, 255);" transform="matrix(0.9999999999999999, 0, 0, 0.9999999999999999, 0, -3.552713678800501e-15)"/>
  <path opacity="1.000000" stroke="none" d="&#10;M219.171463,44.400482 &#10;&#9;C216.789398,43.865749 213.451721,43.569180 212.949905,42.218788 &#10;&#9;C212.119980,39.985462 212.335052,36.623028 213.525513,34.548946 &#10;&#9;C215.431412,31.228350 220.485504,32.489361 221.227768,36.603851 &#10;&#9;C221.649872,38.943638 220.133469,41.633141 219.171463,44.400482 &#10;z" style="fill: rgb(34, 36, 41);" transform="matrix(0.9999999999999999, 0, 0, 0.9999999999999999, 0, -3.552713678800501e-15)"/>
  <path opacity="1.000000" stroke="none" d="&#10;M131.516968,35.798561 &#10;&#9;C133.658585,34.658539 135.851868,32.944824 137.477875,33.375038 &#10;&#9;C138.931366,33.759609 140.662842,36.524105 140.635757,38.212212 &#10;&#9;C140.601273,40.359283 139.478027,43.292500 137.822693,44.432266 &#10;&#9;C134.929459,46.424366 132.367020,44.515186 131.354675,41.471767 &#10;&#9;C130.823090,39.873642 131.300186,37.939987 131.516968,35.798561 &#10;z" style="fill: rgb(34, 36, 41);" transform="matrix(0.9999999999999999, 0, 0, 0.9999999999999999, 0, -3.552713678800501e-15)"/>
  <path opacity="1.000000" stroke="none" d="&#10;M165.468201,32.706711 &#10;&#9;C166.389633,33.821556 166.954010,34.690868 167.800323,35.994442 &#10;&#9;C164.479019,35.994442 161.809875,35.994442 158.823730,35.994442 &#10;&#9;C159.856323,32.331932 161.927963,31.386877 165.468201,32.706711 &#10;z" style="fill: rgb(34, 36, 41);" transform="matrix(0.9999999999999999, 0, 0, 0.9999999999999999, 0, -3.552713678800501e-15)"/>
  <path opacity="1.000000" stroke="none" d="&#10;M265.973328,34.059643 &#10;&#9;C269.690826,30.643389 272.142914,31.667433 274.459717,36.193417 &#10;&#9;C271.329803,36.193417 268.793518,36.233761 266.264679,36.115421 &#10;&#9;C266.066284,36.106140 265.919739,34.990280 265.973328,34.059643 &#10;z" style="fill: rgb(34, 36, 41);" transform="matrix(0.9999999999999999, 0, 0, 0.9999999999999999, 0, -3.552713678800501e-15)"/>
  <path opacity="1.000000" stroke="none" d="&#10;M111.312820,44.518341 &#10;&#9;C108.936417,43.907257 105.766998,43.573330 105.120834,42.118610 &#10;&#9;C104.216820,40.083382 104.484100,36.854702 105.529594,34.781891 &#10;&#9;C107.164612,31.540314 112.395164,32.174850 113.182953,35.817524 &#10;&#9;C113.743912,38.411350 112.232338,41.453392 111.312820,44.518341 &#10;z" style="fill: rgb(34, 36, 41);" transform="matrix(0.9999999999999999, 0, 0, 0.9999999999999999, 0, -3.552713678800501e-15)"/>
</svg>